<svg id="svg" xmlns="http://www.w3.org/2000/svg" xmlns:xlink="http://www.w3.org/1999/xlink" width="400" height="349.6062992125984" viewBox="0, 0, 400,349.6062992125984"><g id="svgg"><path id="path0" d="M53.281 1.235 C 48.552 3.442,45.133 8.856,45.915 12.901 C 47.164 19.367,47.258 22.737,46.869 47.069 C 46.642 61.265,46.285 73.051,46.075 73.261 C 45.734 73.601,13.886 72.637,11.286 72.208 C 10.274 72.040,0.262 82.217,0.262 83.413 C 0.262 84.130,9.116 94.469,9.711 94.447 C 10.000 94.437,11.973 92.309,14.097 89.719 L 17.957 85.010 24.741 85.156 L 31.524 85.302 34.118 90.814 L 36.711 96.325 36.726 183.465 C 36.736 238.160,36.540 273.340,36.202 277.953 C 35.212 291.435,33.386 302.945,31.247 309.186 L 30.617 311.024 43.524 330.143 C 50.622 340.658,56.653 349.252,56.926 349.241 C 57.198 349.229,63.380 340.461,70.663 329.757 L 83.905 310.295 82.673 306.722 C 77.922 292.942,77.731 288.506,77.205 179.790 L 76.795 95.276 79.462 89.895 L 82.129 84.514 86.396 84.514 L 90.663 84.514 95.982 89.501 C 98.907 92.244,101.494 94.488,101.731 94.488 C 102.556 94.488,112.474 83.393,112.013 82.986 C 111.757 82.760,108.876 80.414,105.609 77.771 L 99.670 72.966 83.956 72.966 L 68.241 72.966 68.203 70.472 C 68.183 69.101,67.988 57.349,67.771 44.357 C 67.387 21.372,67.403 20.715,68.390 20.009 C 71.060 18.100,71.959 13.426,70.515 8.958 C 68.036 1.281,60.459 -2.115,53.281 1.235 M113.911 75.025 L 110.499 75.328 113.919 79.003 C 120.034 85.572,119.766 84.496,116.281 88.465 C 114.618 90.359,113.347 92.000,113.458 92.111 C 113.569 92.222,115.547 93.542,117.854 95.045 C 139.881 109.398,150.705 128.329,149.953 151.181 C 149.052 178.571,136.253 196.783,111.230 206.283 C 104.657 208.779,104.765 208.086,109.442 217.736 C 132.085 264.454,178.911 305.823,228.740 323.134 C 232.167 324.325,232.169 324.310,228.344 326.993 C 222.383 331.175,215.426 333.885,205.775 335.785 C 204.485 336.039,204.480 336.057,205.512 336.848 C 210.366 340.569,213.567 341.037,238.845 341.715 C 250.249 342.021,269.619 342.538,281.890 342.865 C 331.399 344.183,387.528 343.661,394.498 341.818 C 400.049 340.350,401.762 316.940,398.069 293.011 C 397.032 286.293,397.201 286.072,392.728 300.000 C 387.778 315.417,384.607 320.476,377.953 323.573 C 375.210 324.849,307.731 325.588,299.023 324.437 C 291.405 323.430,285.897 319.819,283.423 314.209 C 282.085 311.176,282.288 324.679,281.327 174.541 C 280.984 120.840,280.674 76.898,280.640 76.891 C 279.473 76.669,212.697 78.508,212.975 78.754 C 213.201 78.954,215.088 79.387,217.168 79.717 C 228.973 81.590,238.921 86.888,242.013 92.949 L 243.125 95.128 243.958 196.909 C 244.417 252.889,244.645 298.837,244.465 299.017 C 244.135 299.347,239.071 295.172,227.559 285.080 C 193.188 254.949,170.009 230.164,158.061 210.766 L 154.862 205.572 156.827 203.984 C 189.026 177.968,201.559 129.303,182.841 102.971 C 172.000 87.719,150.515 77.046,126.676 75.071 C 120.192 74.534,119.467 74.531,113.911 75.025 " stroke="none" fill="#000000" fill-rule="evenodd"></path></g></svg>